HIERARCHY
ROOT root
{
	OFFSET 0.000000 0.000000 0.000000
	CHANNELS 6 Xposition Yposition Zposition Zrotation Yrotation Xrotation
	JOINT lhip
	{
		OFFSET 0.058581 -0.082280 -0.017664
		CHANNELS 3 Zrotation Yrotation Xrotation
		JOINT lknee
		{
			OFFSET 0.043451 -0.386469 0.008037
			CHANNELS 3 Zrotation Yrotation Xrotation
			JOINT lankle
			{
				OFFSET -0.014790 -0.426874 -0.037428
				CHANNELS 3 Zrotation Yrotation Xrotation
				JOINT ltoe
				{
					OFFSET 0.041054 -0.060286 0.122042
					CHANNELS 3 Zrotation Yrotation Xrotation
					End Site
					{
						OFFSET 0.000000 0.000000 0.000000
					}
				}
			}
		}
	}
	JOINT rhip
	{
		OFFSET -0.060310 -0.090513 -0.013543
		CHANNELS 3 Zrotation Yrotation Xrotation
		JOINT rknee
		{
			OFFSET -0.043257 -0.383688 -0.004843
			CHANNELS 3 Zrotation Yrotation Xrotation
			JOINT rankle
			{
				OFFSET 0.019056 -0.420046 -0.034562
				CHANNELS 3 Zrotation Yrotation Xrotation
				JOINT rtoe
				{
					OFFSET -0.034840 -0.062106 0.130323
					CHANNELS 3 Zrotation Yrotation Xrotation
					End Site
					{
						OFFSET 0.000000 0.000000 0.000000
					}
				}
			}
		}
	}
	JOINT lowerback
	{
		OFFSET 0.004439 0.124404 -0.038385
		CHANNELS 3 Zrotation Yrotation Xrotation
		JOINT upperback
		{
			OFFSET 0.004488 0.137956 0.026820
			CHANNELS 3 Zrotation Yrotation Xrotation
			JOINT chest
			{
				OFFSET -0.002265 0.056032 0.002855
				CHANNELS 3 Zrotation Yrotation Xrotation
				JOINT lowerneck
				{
					OFFSET -0.013390 0.211636 -0.033468
					CHANNELS 3 Zrotation Yrotation Xrotation
					JOINT upperneck
					{
						OFFSET 0.010113 0.088937 0.050410
						CHANNELS 3 Zrotation Yrotation Xrotation
						End Site
						{
							OFFSET 0.000000 0.000000 0.000000
						}
					}
				}
				JOINT lclavicle
				{
					OFFSET 0.071702 0.114000 -0.018898
					CHANNELS 3 Zrotation Yrotation Xrotation
					JOINT lshoulder
					{
						OFFSET 0.122921 0.045205 -0.019046
						CHANNELS 3 Zrotation Yrotation Xrotation
						JOINT lelbow
						{
							OFFSET 0.255332 -0.015649 -0.022946
							CHANNELS 3 Zrotation Yrotation Xrotation
							JOINT lwrist
							{
								OFFSET 0.265709 0.012698 -0.007375
								CHANNELS 3 Zrotation Yrotation Xrotation
								End Site
								{
									OFFSET 0.000000 0.000000 0.000000
								}
							}
						}
					}
				}
				JOINT rclavicle
				{
					OFFSET -0.082954 0.112472 -0.023707
					CHANNELS 3 Zrotation Yrotation Xrotation
					JOINT rshoulder
					{
						OFFSET -0.113228 0.046853 -0.008472
						CHANNELS 3 Zrotation Yrotation Xrotation
						JOINT relbow
						{
							OFFSET -0.260127 -0.014369 -0.031269
							CHANNELS 3 Zrotation Yrotation Xrotation
							JOINT rwrist
							{
								OFFSET -0.269108 0.006794 -0.006027
								CHANNELS 3 Zrotation Yrotation Xrotation
								End Site
								{
									OFFSET 0.000000 0.000000 0.000000
								}
							}
						}
					}
				}
			}
		}
	}
}
MOTION
Frames: 13
Frame Time: 0.033333
0.355591 0.192662 0.901057 -128.442378 6.340434 99.759411 17.110747 18.495157 -40.985064 -3.072035 27.963683 48.288024 1.690029 2.030345 -17.097175 0.000000 -0.000000 0.000000 -16.557557 -9.175503 -23.955229 2.660915 -7.801321 28.400640 10.017229 6.092585 -15.470237 0.000000 -0.000000 0.000000 -1.933872 -1.446405 39.745050 -0.651283 -8.747362 5.175140 3.471919 -3.600501 -4.350327 -16.845103 24.732802 -19.006641 -8.024685 33.358271 -10.350167 -28.717484 -20.229633 0.712459 -53.900590 -19.962872 9.857913 6.793299 -46.596439 -0.942244 2.936108 -8.226639 -26.477982 25.387610 16.920300 7.297349 55.086955 21.433375 12.308796 -24.751662 49.304209 -29.715190 16.414658 9.221544 -27.532256 
0.348160 0.196232 0.900051 -124.859283 6.329419 99.526972 16.420217 19.424332 -41.504261 -1.615130 31.607933 49.844538 1.949448 3.646522 -17.516776 0.000000 -0.000000 0.000000 -17.224490 -10.486027 -20.734376 3.186119 -9.361980 27.663026 9.776013 5.768901 -16.339615 0.000000 -0.000000 0.000000 -1.290108 -0.884348 37.531454 -0.849739 -8.441856 5.276497 3.039199 -3.408704 -4.430292 -16.565319 24.042155 -19.085955 -7.545689 32.578317 -9.447845 -28.449307 -18.991159 1.383236 -52.815872 -17.268202 9.908611 4.975575 -52.864550 1.909091 3.395613 -7.010639 -28.998707 25.546656 15.690126 7.768196 55.658325 19.623333 12.813356 -25.253063 53.549691 -29.539025 13.566542 9.136325 -28.603085 
0.335237 0.202994 0.899082 -119.869376 6.994903 98.195218 15.284258 20.733668 -40.810491 1.124802 35.605381 51.923614 3.289401 5.561825 -18.413529 0.000000 -0.000000 0.000000 -16.813347 -12.329205 -15.441545 2.946415 -10.086922 26.895522 9.758128 4.846140 -16.983975 0.000000 -0.000000 0.000000 -0.679241 0.365013 35.799999 -0.401810 -7.987950 5.336465 3.383561 -2.868311 -4.681457 -15.908445 22.311706 -17.830157 -6.904879 32.499000 -8.342916 -27.959614 -17.622588 1.850127 -51.886737 -14.665867 9.916922 2.431088 -61.654493 5.334713 6.411653 -4.824458 -30.233922 24.965202 14.475115 7.855608 56.631150 16.725038 13.099625 -29.487205 60.100285 -32.971603 10.923888 9.255571 -29.362047 
0.317925 0.205796 0.897351 -114.009931 7.374651 97.624932 12.794022 20.291696 -40.014664 2.211011 38.599820 51.091804 6.144648 8.087135 -21.095484 0.000000 -0.000000 0.000000 -17.087745 -13.587788 -11.411963 2.358570 -11.145214 28.303333 10.757328 3.837351 -16.601581 0.000000 -0.000000 0.000000 -0.541733 1.787021 32.727144 0.224424 -7.422370 4.263704 3.539633 -2.175177 -3.827650 -13.975666 20.487466 -15.591268 -5.293811 30.842152 -5.404921 -25.208682 -15.748792 0.966829 -52.247088 -13.613251 11.146529 -1.049694 -72.113769 11.383980 8.423822 -2.622171 -30.463227 23.161240 12.407564 6.579558 59.365066 14.608517 14.507936 -40.744042 66.987619 -42.339231 11.868473 9.430292 -30.738569 
0.294369 0.204907 0.897691 -107.256570 7.872905 96.348441 9.684965 18.121687 -36.947259 0.828274 36.475818 45.712757 10.346143 10.318307 -26.144677 0.000000 -0.000000 0.000000 -17.813907 -14.055452 -7.421126 0.967928 -12.169502 32.624013 13.999686 3.547943 -13.039960 0.000000 -0.000000 0.000000 -0.234425 3.038255 30.031941 0.784233 -6.756786 2.897901 3.707616 -1.378149 -2.767022 -11.492177 19.285756 -11.961865 -3.317536 28.487630 -1.073755 -21.802330 -15.280099 -0.726136 -52.250830 -15.304326 12.307030 -6.488852 -81.499328 19.057418 10.603833 -2.444919 -29.851709 21.193731 11.321964 4.436947 61.505148 13.947337 15.687893 -62.666882 71.418337 -62.660387 10.832735 10.035021 -31.641253 
0.268928 0.197603 0.901790 -99.072086 8.464245 95.306206 8.530978 13.347111 -34.921853 -1.370797 31.223570 44.276202 11.395417 10.850413 -27.661503 0.000000 -0.000000 0.000000 -17.491068 -12.083464 -5.532112 -1.387146 -11.924021 39.715422 16.720564 0.833380 -5.644898 0.000000 -0.000000 0.000000 -0.402889 3.604609 27.758200 2.447808 -6.206994 0.968848 4.017624 -0.829544 -1.988317 -7.265788 16.705293 -7.346863 -0.452063 26.170283 4.854456 -18.012438 -15.924760 -3.324509 -52.689327 -20.119407 14.499306 40.232856 -87.543281 -24.828338 11.247457 -2.692865 -29.749857 19.016166 11.666202 1.132083 61.584384 15.826602 17.563833 -86.279001 69.746390 -83.363064 11.758943 11.096691 -33.060127 
0.246632 0.189572 0.908971 -89.890122 7.896925 94.666982 7.016671 6.879473 -32.710504 -2.974466 27.555274 42.471334 12.244287 10.619910 -26.788992 0.000000 -0.000000 0.000000 -15.790442 -7.813955 -6.989595 -3.555621 -9.254541 49.700322 15.427794 -3.279851 2.100211 0.000000 -0.000000 0.000000 -1.559439 4.508768 26.174625 4.132607 -5.837540 -1.008280 3.943027 -0.799409 -1.234747 -3.951249 14.793475 -2.709867 1.334147 22.367945 8.658905 -13.361128 -18.356002 -6.107661 -51.277680 -28.639147 15.634595 95.797593 -83.713992 -79.446487 11.493560 -3.101422 -27.813615 17.510041 13.207917 -2.283084 58.949134 21.679749 18.832274 -96.024414 64.192335 -90.800596 11.020243 11.599434 -33.102922 
0.223134 0.180481 0.914073 -80.709667 7.391481 93.465997 4.048569 3.976819 -29.699227 -4.806672 21.373746 41.198008 13.205176 10.960386 -27.028167 0.000000 -0.000000 0.000000 -13.847217 -4.789642 -9.864014 -1.444648 -6.739899 62.261578 13.781562 -3.620458 1.240816 0.000000 -0.000000 0.000000 -2.142934 4.142785 24.945760 5.131636 -5.450631 -2.131569 3.564377 0.109259 -0.528508 -1.536239 13.085837 1.353417 2.420114 16.866950 12.649993 -8.252575 -21.921808 -10.660462 -48.318499 -36.548392 15.746743 85.048698 -77.538886 -70.209410 12.368803 -3.070619 -26.450073 15.270210 17.076436 -5.488277 52.125000 28.349089 16.512898 -97.085442 58.817619 -92.111161 9.470086 11.434573 -34.251328 
0.200203 0.172703 0.919225 -70.871076 6.667969 91.830318 2.109879 1.794004 -25.588512 -7.267647 16.099280 40.015894 12.939780 9.514859 -26.927956 0.000000 -0.000000 0.000000 -11.726569 -3.287292 -13.298717 -0.385452 -7.346961 72.882919 12.597563 -2.704697 -0.641995 0.000000 -0.000000 0.000000 -2.217103 3.172630 26.107867 5.518046 -5.341930 -3.764926 3.212250 0.952569 -0.814746 -0.184220 10.680264 4.662099 3.184186 12.135712 15.807195 -2.834457 -25.722093 -15.577377 -41.785396 -42.600262 12.813416 72.091855 -70.736998 -59.854502 9.247727 -4.931400 -24.644798 11.080771 21.806627 -8.562497 42.837380 33.678917 10.511949 -92.166104 53.237553 -88.806944 9.898363 11.634574 -34.115904 
0.177109 0.165183 0.925841 -60.376063 5.294685 91.020356 0.021479 0.754980 -22.226598 -10.179760 10.854164 38.949690 12.422950 8.073050 -26.349348 0.000000 -0.000000 0.000000 -11.350729 -4.764196 -18.497115 -0.378380 -9.121472 80.167429 12.466038 -2.447450 -2.346704 0.000000 -0.000000 0.000000 -2.752568 2.786995 27.118748 5.437400 -5.702484 -5.219100 3.443412 1.333197 -1.159056 0.499409 8.465525 7.472659 4.279956 7.491041 16.712267 3.129101 -29.445088 -19.918299 -33.348719 -47.075753 7.642242 61.569927 -63.332767 -53.485500 7.944384 -6.067682 -24.501995 5.206094 25.293612 -11.313640 32.634645 36.203584 1.880400 -86.154924 48.090311 -84.972776 9.261753 10.701097 -33.211621 
0.152004 0.157763 0.933915 -50.806382 4.500245 90.628976 -0.405459 1.910494 -19.257718 -12.344370 7.570043 38.078974 11.823502 5.230233 -26.588357 0.000000 -0.000000 0.000000 -10.195844 -6.174958 -24.796500 -1.097940 -10.894580 82.474183 9.382015 -3.003225 -4.536448 0.000000 -0.000000 0.000000 -2.921542 1.412113 27.063864 4.951563 -5.881019 -4.738503 3.299928 2.015634 -2.048537 0.411709 7.085322 9.970923 5.755096 3.691093 16.168872 8.898610 -31.241430 -23.787275 -25.166209 -48.342032 1.844031 57.458680 -57.747368 -53.423169 6.797379 -6.502929 -24.585080 -1.255966 28.058189 -13.106762 23.461516 36.902689 -7.364103 -79.952418 44.623220 -81.697673 8.767377 9.458455 -32.241164 
0.123506 0.149380 0.943305 -41.148120 4.058867 90.544576 0.229152 3.807569 -17.219314 -13.817402 4.513700 38.358168 10.454519 2.168852 -26.384899 0.000000 -0.000000 0.000000 -9.637451 -7.235793 -30.230445 -1.151990 -12.364411 79.336541 9.579025 -2.095740 -5.215270 0.000000 -0.000000 0.000000 -3.045404 0.091531 26.902939 4.424583 -5.642555 -5.128050 3.328679 2.249142 -1.971275 1.291563 4.825767 12.189876 7.403004 0.397516 15.318112 12.270874 -31.619725 -25.347231 -20.104592 -50.211246 -2.639287 55.893444 -53.684094 -53.250135 5.382056 -7.202000 -24.571965 -5.545685 27.936289 -14.809565 17.337142 37.453363 -13.942651 -75.230529 42.428792 -78.950576 11.842892 10.145368 -33.323543 
0.092371 0.138944 0.951730 -31.038823 3.926728 90.230244 1.934855 4.955524 -15.238097 -14.889572 2.802379 38.701385 8.186341 0.360275 -25.742477 0.000000 -0.000000 0.000000 -9.942794 -7.323228 -33.576833 -0.217109 -12.844316 71.897514 11.043482 -0.398534 -6.004790 0.000000 -0.000000 0.000000 -2.843178 -1.214441 26.632018 4.157654 -5.852283 -4.802890 3.067310 1.653224 -1.543522 2.446856 2.169351 13.534680 8.664171 -2.573779 14.730360 13.223506 -31.239096 -26.130496 -17.830679 -52.540265 -5.190259 55.199499 -51.088545 -53.136857 5.108058 -7.448856 -25.086484 -7.495653 27.515454 -15.777756 13.478480 38.280258 -17.457694 -73.098705 41.676098 -77.042594 12.012648 10.290584 -34.046738 
